# xmcd
# 
# Track frame offsets:
#     150
#     9747
#     25315
#     42227
#     56237
#     69970
# 
# Disc length: 1132
# 
# Revision: 0
# Processed by: cddbd v1.5.2PL0 Copyright (c) Steve Scherf et al.
# Submitted via: BonkEnc v1.0.8
# 
DISCID=4b046a06
DTITLE=George Strait - George Strait
DYEAR=1996
DGENRE=Country
TTITLE0=The Big One
TTITLE1=What's Going On In Your World
TTITLE2=I've Come To Expect It From You
TTITLE3=Love Without End, Amen
TTITLE4=Easy Come, Easy Go
TTITLE5=You Can't Make A Heart Love Somebody
EXTD=
EXTT0=
EXTT1=
EXTT2=
EXTT3=
EXTT4=
EXTT5=
PLAYORDER=
